<?xml version="1.0" encoding="utf-8"?>
<!-- Generator: Adobe Illustrator 15.0.2, SVG Export Plug-In  -->
<!DOCTYPE svg PUBLIC "-//W3C//DTD SVG 1.1//EN" "http://www.w3.org/Graphics/SVG/1.1/DTD/svg11.dtd" [
	<!ENTITY ns_flows "http://ns.adobe.com/Flows/1.0/">
]>
<svg version="1.1"
	 xmlns="http://www.w3.org/2000/svg" xmlns:xlink="http://www.w3.org/1999/xlink" xmlns:a="http://ns.adobe.com/AdobeSVGViewerExtensions/3.0/"
	 x="0px" y="0px" width="102px" height="37px" viewBox="-6.767 -4.513 102 37"
	 overflow="visible" enable-background="new -6.767 -4.513 102 37" xml:space="preserve">
<defs>
</defs>
<rect x="3.208" y="14.322" fill="#0483A0" width="4.021" height="4.776"/>
<rect x="9.347" y="11.712" fill="#0483A0" width="4.021" height="7.386"/>
<rect x="15.483" y="9.372" fill="#0483A0" width="4.02" height="9.728"/>
<polygon fill="#FFFFFF" points="31.611,4.981 31.611,19.611 40.805,19.611 40.805,23.368 27.516,23.368 27.516,4.981 "/>
<path fill="#FFFFFF" d="M45.822,6.952c0,2.836-4.307,2.836-4.307,0C41.515,4.114,45.822,4.114,45.822,6.952 M41.777,23.368h3.783
	V10.365h-3.783V23.368z"/>
<path fill="#FFFFFF" d="M52.599,6.847v3.624h3.283v3.151h-3.309v4.886c0,1.365,0.762,1.733,1.471,1.733
	c0.445,0,1.156-0.105,1.576-0.316l0.865,3.151c-0.944,0.369-1.705,0.527-2.731,0.579c-2.81,0.132-4.938-1.103-4.938-5.147v-4.886
	h-2.311v-3.151h2.311V7.266L52.599,6.847z"/>
<path fill="#FFFFFF" d="M61.187,6.952c0,2.836-4.309,2.836-4.309,0C56.878,4.114,61.187,4.114,61.187,6.952 M57.142,23.368h3.783
	V10.365h-3.783V23.368z"/>
<path fill="#FFFFFF" d="M65.784,25.153c0.131,1.997,1.522,2.627,3.258,2.627c1.68,0,3.203-0.788,3.203-2.391
	c0-1.261-0.813-2.232-3.152-2.232c-4.255,0-7.013-2.521-7.013-6.539c0-4.413,3.39-6.62,7.013-6.62c0.92,0,2.206,0.132,3.048,0.708
	l1.418-1.837l2.731,2.102l-1.656,1.97c0.922,1.103,1.394,2.442,1.34,3.73c-0.052,1.838-0.891,3.571-2.783,4.543
	c2.89,1.287,2.89,3.414,2.89,4.176c0,3.861-3.468,5.727-7.038,5.727c-4.492,0-6.832-2.232-6.777-5.963H65.784z M65.731,16.618
	c0,1.865,1.446,3.099,3.361,3.099c1.707,0,3.256-1.024,3.256-3.099c0-1.813-1.363-3.257-3.256-3.257
	C67.178,13.36,65.731,14.516,65.731,16.618"/>
<path fill="#FFFFFF" d="M76.921,16.906c0-3.914,2.783-6.802,7.092-6.802c4.332,0,7.119,2.888,7.119,6.802
	c0,3.915-2.707,6.75-7.119,6.75C79.624,23.656,76.921,20.821,76.921,16.906 M87.295,16.906c0-1.627-0.997-3.414-3.282-3.414
	c-2.26,0-3.258,1.787-3.258,3.414c0,1.63,0.971,3.389,3.258,3.389C86.321,20.294,87.295,18.614,87.295,16.906"/>
<rect x="0.001" y="20.499" fill="#0483A0" width="22.393" height="3.494"/>
<polygon fill="#0483A0" points="11.356,0 0,4.678 0,7.949 22.394,7.949 22.394,4.678 22.565,4.678 "/>
</svg>
